<?xml version="1.0" encoding="utf-8"?>
<!-- Generator: Adobe Illustrator 17.0.2, SVG Export Plug-In . SVG Version: 6.00 Build 0)  -->
<!DOCTYPE svg PUBLIC "-//W3C//DTD SVG 1.1//EN" "http://www.w3.org/Graphics/SVG/1.1/DTD/svg11.dtd">
<svg version="1.1" id="Layer_1" xmlns="http://www.w3.org/2000/svg" xmlns:xlink="http://www.w3.org/1999/xlink" x="0px" y="0px"
	 width="185.349px" height="206.462px" viewBox="0 0 185.349 206.462" enable-background="new 0 0 185.349 206.462"
	 xml:space="preserve">
<path fill="#FFFFFF" d="M130.481,0H81.505L46.153,101.144H11.538L0,132.568h34.86l-18.903,53.027c0,0,0.737,1.719,6.137,1.719
	c5.401,0,6.874-1.227,7.856,0c0.982,1.227,3.928,1.964,3.928,1.964s1.718,0.982,2.332,3.437c0,0,4.296-1.473,5.033,0
	c0.736,1.473,2.7,1.227,2.7,2.455s1.718,6.137,1.718,6.137s4.664-4.419,4.91,0c0,0,3.191,0.245,4.173,2.7
	c0,0,5.401-0.982,6.628,2.455l20.131-74.385h49.099l5.401,20.376h49.345L130.481,0z M90.833,101.39l15.221-54.5l16.448,54.5H90.833z
	"/>
</svg>
